<mxfile host="app.diagrams.net" agent="Mozilla/5.0 (Windows NT 10.0; Win64; x64) AppleWebKit/537.36 (KHTML, like Gecko) Chrome/128.0.0.0 Safari/537.36" version="24.7.8">
  <diagram name="Page-1" id="XtooSmVXMNJsxGqy0Vn2">
    <mxGraphModel dx="521" dy="557" grid="1" gridSize="10" guides="1" tooltips="1" connect="1" arrows="1" fold="1" page="1" pageScale="1" pageWidth="850" pageHeight="1100" math="0" shadow="0">
      <root>
        <mxCell id="0" />
        <mxCell id="1" parent="0" />
        <mxCell id="Zc9IKSC_2bmpc-Vfdk1K-1" value="end" style="rounded=1;whiteSpace=wrap;html=1;" vertex="1" parent="1">
          <mxGeometry x="360" y="610" width="120" height="60" as="geometry" />
        </mxCell>
        <mxCell id="Zc9IKSC_2bmpc-Vfdk1K-2" value="start" style="rounded=1;whiteSpace=wrap;html=1;" vertex="1" parent="1">
          <mxGeometry x="360" y="30" width="120" height="60" as="geometry" />
        </mxCell>
        <mxCell id="Ixw1f2zEgVVnW6qnlULw-26" value="" style="edgeStyle=orthogonalEdgeStyle;rounded=0;orthogonalLoop=1;jettySize=auto;html=1;" edge="1" parent="1" source="Ixw1f2zEgVVnW6qnlULw-10" target="Zc9IKSC_2bmpc-Vfdk1K-1">
          <mxGeometry relative="1" as="geometry" />
        </mxCell>
        <mxCell id="Ixw1f2zEgVVnW6qnlULw-10" value="y" style="shape=document;whiteSpace=wrap;html=1;boundedLbl=1;" vertex="1" parent="1">
          <mxGeometry x="360" y="490" width="120" height="80" as="geometry" />
        </mxCell>
        <mxCell id="Ixw1f2zEgVVnW6qnlULw-19" value="" style="edgeStyle=orthogonalEdgeStyle;rounded=0;orthogonalLoop=1;jettySize=auto;html=1;" edge="1" parent="1" source="Zc9IKSC_2bmpc-Vfdk1K-2">
          <mxGeometry relative="1" as="geometry">
            <mxPoint x="420" y="110" as="sourcePoint" />
            <mxPoint x="420" y="120" as="targetPoint" />
          </mxGeometry>
        </mxCell>
        <mxCell id="Ixw1f2zEgVVnW6qnlULw-22" value="" style="edgeStyle=orthogonalEdgeStyle;rounded=0;orthogonalLoop=1;jettySize=auto;html=1;" edge="1" parent="1" source="Ixw1f2zEgVVnW6qnlULw-20" target="Ixw1f2zEgVVnW6qnlULw-21">
          <mxGeometry relative="1" as="geometry" />
        </mxCell>
        <mxCell id="Ixw1f2zEgVVnW6qnlULw-20" value="x(int)&lt;div&gt;&#39;what is x&#39;&lt;/div&gt;" style="shape=card;whiteSpace=wrap;html=1;" vertex="1" parent="1">
          <mxGeometry x="325" y="120" width="190" height="100" as="geometry" />
        </mxCell>
        <mxCell id="Ixw1f2zEgVVnW6qnlULw-24" value="" style="edgeStyle=orthogonalEdgeStyle;rounded=0;orthogonalLoop=1;jettySize=auto;html=1;" edge="1" parent="1" source="Ixw1f2zEgVVnW6qnlULw-21" target="Ixw1f2zEgVVnW6qnlULw-23">
          <mxGeometry relative="1" as="geometry" />
        </mxCell>
        <mxCell id="Ixw1f2zEgVVnW6qnlULw-21" value="x" style="shape=document;whiteSpace=wrap;html=1;boundedLbl=1;" vertex="1" parent="1">
          <mxGeometry x="360" y="260" width="120" height="80" as="geometry" />
        </mxCell>
        <mxCell id="Ixw1f2zEgVVnW6qnlULw-25" value="" style="edgeStyle=orthogonalEdgeStyle;rounded=0;orthogonalLoop=1;jettySize=auto;html=1;" edge="1" parent="1" source="Ixw1f2zEgVVnW6qnlULw-23" target="Ixw1f2zEgVVnW6qnlULw-10">
          <mxGeometry relative="1" as="geometry" />
        </mxCell>
        <mxCell id="Ixw1f2zEgVVnW6qnlULw-23" value="y(int)&lt;div&gt;&#39;what is y&#39;&lt;/div&gt;" style="shape=card;whiteSpace=wrap;html=1;" vertex="1" parent="1">
          <mxGeometry x="325" y="370" width="190" height="100" as="geometry" />
        </mxCell>
      </root>
    </mxGraphModel>
  </diagram>
</mxfile>
